<?xml version="1.0" standalone="no"?>
<!DOCTYPE svg PUBLIC "-//W3C//DTD SVG 20010904//EN"
 "http://www.w3.org/TR/2001/REC-SVG-20010904/DTD/svg10.dtd">
<svg version="1.0" xmlns="http://www.w3.org/2000/svg"
 width="408.000000pt" height="408.000000pt" viewBox="0 0 408.000000 408.000000"
 preserveAspectRatio="xMidYMid meet">
<metadata>
Created by potrace 1.14, written by Peter Selinger 2001-2017
</metadata>
<g transform="translate(0.000000,408.000000) scale(0.100000,-0.100000)"
fill="#000000" stroke="none">
<path d="M1810 4059 c-453 -52 -880 -259 -1205 -584 -329 -328 -533 -752 -585
-1214 -6 -52 -9 -95 -7 -97 1 -2 50 39 109 91 l105 94 23 98 c146 635 613
1143 1231 1341 121 39 273 70 387 80 l87 7 3 98 3 97 -38 -1 c-21 -1 -72 -5
-113 -10z"/>
<path d="M2040 3850 c0 -121 3 -220 8 -219 8 1 185 203 190 218 4 11 -177 221
-190 221 -5 0 -8 -99 -8 -220z"/>
<path d="M2271 3955 c59 -67 101 -107 118 -111 188 -43 316 -86 459 -156 549
-267 946 -820 1012 -1408 19 -167 5 -150 116 -150 l96 0 -6 78 c-75 854 -676
1573 -1497 1791 -127 34 -281 61 -347 61 l-43 0 92 -105z"/>
<path d="M1851 3808 c-760 -78 -1395 -654 -1552 -1405 l-20 -98 78 -72 c43
-40 81 -72 85 -73 4 0 9 15 12 33 49 321 118 513 263 731 80 121 260 309 373
392 233 170 486 270 773 305 l98 12 -3 90 c-2 50 -7 91 -13 92 -5 1 -48 -2
-94 -7z"/>
<path d="M2244 3719 c-38 -43 -70 -84 -72 -89 -2 -6 12 -10 32 -10 111 0 370
-73 533 -151 193 -92 419 -276 558 -454 176 -225 289 -499 325 -787 l12 -98
94 0 c53 0 94 4 94 9 0 49 -36 263 -59 353 -160 617 -661 1115 -1274 1268
-189 46 -164 50 -243 -41z"/>
<path d="M842 2652 c7 -11 34 -42 60 -70 l46 -52 379 0 379 0 40 43 c22 23 50
54 63 70 l24 27 -502 0 c-486 0 -502 -1 -489 -18z"/>
<path d="M1995 2605 c39 -35 73 -63 77 -62 8 3 128 117 128 123 0 2 -62 4
-137 4 l-138 -1 70 -64z"/>
<path d="M3001 2663 c0 -5 32 -35 71 -67 l70 -59 66 66 67 67 -138 0 c-75 0
-137 -3 -136 -7z"/>
<path d="M790 2522 c0 -74 4 -132 8 -130 12 5 112 117 112 126 0 4 -27 36 -60
72 l-59 65 -1 -133z"/>
<path d="M1797 2584 l-57 -66 56 -64 c31 -35 60 -64 65 -64 5 0 9 59 9 130 0
72 -3 130 -7 130 -5 0 -34 -30 -66 -66z"/>
<path d="M1910 2041 c0 -325 3 -591 6 -591 7 0 125 100 136 115 4 5 8 220 8
476 l0 466 -57 49 c-32 27 -66 55 -75 63 -17 13 -18 -16 -18 -578z"/>
<path d="M2153 2574 l-63 -56 0 -477 0 -477 65 -64 65 -64 0 597 c0 328 -1
597 -2 597 -2 0 -31 -26 -65 -56z"/>
<path d="M2250 2501 l0 -134 133 -248 132 -249 85 0 85 1 133 249 132 250 0
125 c0 69 -3 125 -7 125 -5 -1 -82 -133 -173 -295 -90 -162 -167 -295 -171
-295 -3 0 -77 127 -164 283 -87 155 -164 291 -172 302 -11 17 -13 0 -13 -114z"/>
<path d="M2980 2041 c0 -325 3 -591 6 -591 4 0 37 27 75 61 l69 61 0 467 0
467 -57 49 c-32 28 -66 56 -75 64 -17 13 -18 -16 -18 -578z"/>
<path d="M3218 2571 l-68 -63 1 -472 1 -471 64 -59 c35 -33 66 -57 69 -54 3 3
4 270 3 593 l-3 589 -67 -63z"/>
<path d="M886 2438 l-56 -63 177 -3 177 -2 66 65 65 65 -187 0 -186 0 -56 -62z"/>
<path d="M1405 2435 l70 -64 178 -1 178 0 -58 65 -58 65 -190 0 -190 0 70 -65z"/>
<path d="M1340 2008 l0 -443 66 -57 c36 -32 70 -58 75 -58 5 0 9 171 9 433 l0
432 -75 68 -75 68 0 -443z"/>
<path d="M1232 2377 l-62 -63 0 -432 c0 -237 3 -432 6 -432 4 0 35 25 70 56
l64 56 0 439 c0 241 -4 439 -8 439 -4 0 -36 -28 -70 -63z"/>
<path d="M2250 2227 l0 -96 123 -222 122 -222 3 82 3 82 -117 227 c-64 125
-120 231 -125 237 -5 5 -9 -32 -9 -88z"/>
<path d="M2921 2280 c-13 -25 -68 -130 -123 -233 l-99 -189 3 -83 3 -83 123
221 123 221 -3 96 -3 95 -24 -45z"/>
<path d="M119 2138 c-57 -50 -105 -95 -107 -100 -2 -4 96 -8 217 -8 122 0 221
2 221 4 0 5 -217 196 -223 196 -2 0 -51 -41 -108 -92z"/>
<path d="M3630 2036 c0 -7 217 -196 225 -196 7 0 225 190 225 196 0 2 -101 4
-225 4 -124 0 -225 -2 -225 -4z"/>
<path d="M10 1916 c0 -119 62 -412 121 -573 250 -684 854 -1188 1566 -1307
143 -24 216 -30 212 -17 -2 6 -43 55 -91 110 l-87 99 -68 12 c-38 7 -126 32
-198 55 -621 202 -1094 733 -1224 1372 -12 55 -24 138 -28 184 l-8 84 -97 3
-98 3 0 -25z"/>
<path d="M260 1936 c0 -41 37 -265 56 -341 108 -424 382 -805 756 -1049 176
-114 412 -211 614 -251 l90 -19 40 45 c22 24 57 62 77 84 l35 40 -134 22
c-527 87 -968 417 -1193 894 -75 159 -122 327 -146 527 l-7 52 -94 0 c-52 0
-94 -2 -94 -4z"/>
<path d="M3626 1894 c-3 -9 -6 -29 -6 -45 0 -53 -41 -229 -77 -332 -157 -452
-513 -813 -962 -976 -96 -35 -275 -77 -373 -86 l-68 -7 0 -94 c0 -69 3 -94 13
-94 6 0 60 7 119 15 746 99 1347 654 1509 1395 l20 95 -68 63 c-85 78 -99 87
-107 66z"/>
<path d="M3955 1810 l-100 -89 -33 -128 c-139 -542 -496 -976 -996 -1213 -179
-85 -356 -138 -531 -160 -49 -6 -105 -13 -122 -16 l-33 -5 0 -94 0 -95 29 0
c17 0 82 7 145 15 809 106 1487 708 1691 1500 29 114 38 165 60 338 3 20 2 37
-2 37 -5 -1 -53 -41 -108 -90z"/>
<path d="M2510 1765 l0 -85 90 0 90 0 0 85 0 85 -90 0 -90 0 0 -85z"/>
<path d="M1250 1470 l-65 -60 143 0 143 0 -68 60 c-37 33 -72 60 -78 60 -5 -1
-39 -28 -75 -60z"/>
<path d="M1997 1474 c-37 -30 -67 -57 -67 -60 0 -2 62 -4 138 -4 l137 0 -62
60 c-33 33 -65 60 -70 60 -5 0 -39 -25 -76 -56z"/>
<path d="M3066 1474 c-36 -30 -66 -57 -66 -60 0 -2 62 -4 138 -4 l137 1 -64
59 c-35 33 -67 60 -72 60 -4 0 -37 -25 -73 -56z"/>
<path d="M1955 348 c-49 -56 -93 -107 -98 -114 -5 -8 27 -51 90 -124 l98 -111
3 110 c1 60 1 162 0 225 l-3 115 -90 -101z"/>
</g>
</svg>
