<?xml version="1.0" standalone="no"?>
<!DOCTYPE svg PUBLIC "-//W3C//DTD SVG 20010904//EN"
 "http://www.w3.org/TR/2001/REC-SVG-20010904/DTD/svg10.dtd">
<svg version="1.0" xmlns="http://www.w3.org/2000/svg"
 width="150.000000pt" height="150.000000pt" viewBox="0 0 150.000000 150.000000"
 preserveAspectRatio="xMidYMid meet">
<metadata>
Created by potrace 1.14, written by Peter Selinger 2001-2017
</metadata>
<g transform="translate(0.000000,150.000000) scale(0.100000,-0.100000)"
fill="#000000" stroke="none">
<path d="M234 1131 c-2 -2 -4 -120 -4 -261 0 -331 -11 -310 170 -310 182 0
175 -9 176 204 l1 166 -73 0 -74 0 0 -139 c0 -131 -1 -140 -20 -146 -11 -3
-24 -3 -30 0 -6 4 -10 77 -10 191 l0 184 106 0 c80 0 105 3 102 13 -3 8 -36
13 -106 15 l-101 3 -3 42 -3 42 -63 0 c-35 0 -65 -2 -68 -4z"/>
<path d="M620 1132 c-6 -2 -10 -97 -10 -268 0 -327 -12 -304 160 -304 l120 0
0 55 0 55 -70 0 -70 0 -2 232 -3 232 -57 1 c-32 0 -62 -1 -68 -3z"/>
<path d="M989 1132 c-15 -2 -35 -12 -44 -22 -16 -17 -18 -46 -17 -267 0 -137
1 -256 1 -265 1 -15 11 -18 71 -18 l70 0 0 45 0 46 73 -2 c103 -2 127 0 127
11 0 6 -40 10 -100 10 l-100 0 0 190 c0 176 1 190 18 190 37 0 42 -20 42 -157
l0 -133 70 0 70 0 0 164 c0 215 4 209 -146 210 -60 1 -121 0 -135 -2z"/>
<path d="M230 491 c0 -5 7 -11 15 -15 11 -4 15 -20 15 -56 0 -38 4 -50 15 -50
11 0 15 12 15 50 0 36 4 52 15 56 30 12 14 24 -30 24 -25 0 -45 -4 -45 -9z"/>
<path d="M340 435 l0 -65 35 0 c39 0 48 17 13 22 -27 4 -31 34 -5 32 9 -1 17
4 17 12 0 8 -9 14 -21 14 -27 0 -19 24 9 28 35 5 25 22 -13 22 l-35 0 0 -65z"/>
<path d="M442 488 c-7 -7 -12 -30 -12 -53 0 -46 13 -65 47 -65 19 0 43 25 43
44 0 13 -28 5 -34 -10 -9 -22 -23 -9 -28 26 -5 35 17 64 28 36 6 -15 34 -23
34 -10 0 36 -52 58 -78 32z"/>
<path d="M540 436 c0 -53 3 -66 16 -66 8 0 13 3 11 8 -8 12 12 54 23 47 5 -3
10 -17 10 -31 0 -15 6 -24 15 -24 12 0 15 14 15 65 0 51 -3 65 -15 65 -9 0
-15 -9 -15 -25 0 -31 -27 -34 -32 -3 -2 12 -9 23 -15 26 -10 3 -13 -14 -13
-62z"/>
<path d="M650 435 c0 -72 17 -89 22 -22 l4 42 19 -42 c12 -29 24 -43 37 -43
16 0 18 8 18 65 0 72 -17 89 -22 23 l-4 -43 -19 43 c-12 28 -24 42 -37 42 -16
0 -18 -8 -18 -65z"/>
<path d="M782 488 c-16 -16 -16 -90 0 -106 15 -15 51 -15 66 0 16 16 16 90 0
106 -7 7 -21 12 -33 12 -12 0 -26 -5 -33 -12z m50 -36 c7 -24 -9 -65 -22 -57
-11 7 -14 68 -4 78 10 9 21 0 26 -21z"/>
<path d="M880 435 l0 -65 35 0 c38 0 47 14 15 23 -17 4 -20 14 -20 56 0 39 -4
51 -15 51 -12 0 -15 -14 -15 -65z"/>
<path d="M981 491 c-17 -11 -23 -79 -10 -103 11 -20 64 -25 75 -7 4 7 9 29 11
49 7 55 -34 87 -76 61z m47 -62 c-2 -22 -8 -34 -18 -34 -20 0 -27 65 -8 76 19
12 30 -4 26 -42z"/>
<path d="M1080 481 c-13 -25 -13 -67 0 -91 7 -14 20 -19 45 -18 31 1 35 4 35
30 0 32 -19 38 -27 8 -8 -31 -28 -18 -31 20 -4 37 13 64 24 37 7 -20 34 -23
34 -4 0 37 -62 51 -80 18z"/>
<path d="M1190 458 c11 -24 20 -53 20 -65 0 -13 5 -23 10 -23 6 0 10 11 10 25
0 14 9 44 20 65 17 32 18 40 6 40 -8 0 -18 -9 -21 -20 -3 -11 -10 -20 -15 -20
-5 0 -12 9 -15 20 -3 11 -13 20 -20 20 -11 0 -10 -9 5 -42z"/>
</g>
</svg>
